<svg xmlns="http://www.w3.org/2000/svg" xml:space="preserve" width="100%" height="100%" version="1.1" style="shape-rendering:geometricPrecision; text-rendering:geometricPrecision; image-rendering:optimizeQuality; fill-rule:evenodd; clip-rule:evenodd"
viewBox="0 0 500 500"
 xmlns:xlink="http://www.w3.org/1999/xlink">
 <defs>
  <style type="text/css">
   <![CDATA[
    .str0 {stroke:#0083DB;stroke-width:5}
    .fil3 {fill:none}
    .fil2 {fill:url(#id0)}
    .fil0 {fill:url(#id1)}
    .fil1 {fill:url(#id2)}
   ]]>
  </style>
  <linearGradient id="id0" gradientUnits="userSpaceOnUse" x1="87.514" y1="320.036" x2="389.944" y2="320.036">
   <stop offset="0" style="stop-color:#0099FF"/>
   <stop offset="1" style="stop-color:#5DBEFF"/>
  </linearGradient>
  <linearGradient id="id1" gradientUnits="userSpaceOnUse" x1="247.858" y1="90.578" x2="247.858" y2="400.813">
   <stop offset="0" style="stop-color:#B9E3FF"/>
   <stop offset="1" style="stop-color:#0078C8"/>
  </linearGradient>
  <linearGradient id="id2" gradientUnits="userSpaceOnUse" x1="211.82" y1="202.802" x2="288.158" y2="279.142">
   <stop offset="0" style="stop-color:#17A2FF"/>
   <stop offset="1" style="stop-color:#74C7FF"/>
  </linearGradient>
 </defs>
 <g id="Layer_x0020_1">
  <metadata id="CorelCorpID_0Corel-Layer"/>
  <path class="fil0" d="M286 461c-14,0 -14,20 0,20 103,0 184,-89 184,-191 0,-103 -83,-186 -186,-186l-77 0 0 -60c0,-26 -30,-33 -51,-13l-113 114c-17,17 -17,33 0,50l113 114c21,20 51,13 51,-13l0 -60 77 0c64,0 115,52 115,116 0,63 -49,109 -113,109z"/>
  <path class="fil1" d="M40 170l249 0c82,0 149,67 149,149 0,58 -33,110 -81,136 19,-9 37,-22 52,-37 31,-33 51,-79 51,-128 0,-49 -20,-93 -51,-125 -32,-32 -76,-51 -125,-51l-87 0 0 -70c0,-6 -2,-11 -8,-14 -9,-3 -19,2 -25,8l-114 114c-7,7 -10,13 -10,18z"/>
  <path class="fil2" d="M357 455c48,-26 81,-78 81,-136 0,-82 -67,-149 -149,-149l-249 0c0,10 10,16 10,18l114 114c6,6 16,11 25,8 7,-3 7,-14 8,-14l0 -70 87 0c35,0 66,14 89,37 22,23 36,54 36,89 0,34 -13,64 -35,85 -19,18 -44,30 -73,33 20,-2 38,-7 56,-15z"/>
  <path class="fil3 str0" d="M286 461c-14,0 -14,20 0,20 103,0 184,-89 184,-191 0,-103 -83,-186 -186,-186l-77 0 0 -60c0,-26 -30,-33 -51,-13l-113 114c-17,17 -17,33 0,50l113 114c21,20 51,13 51,-13l0 -60 77 0c64,0 115,52 115,116 0,63 -49,109 -113,109z"/>
 </g>
</svg>
